<?plantuml 1.2026.1?><svg xmlns="http://www.w3.org/2000/svg" xmlns:xlink="http://www.w3.org/1999/xlink" contentStyleType="text/css" data-diagram-type="CLASS" height="278px" preserveAspectRatio="none" style="width:247px;height:278px;background:#FFFFFF;" version="1.1" viewBox="0 0 247 278" width="247px" zoomAndPan="magnify"><defs/><g><!--class Motor_Vehicle--><g class="entity" data-qualified-name="Motor_Vehicle" data-source-line="1" id="ent0002"><rect fill="#F1F1F1" height="48" rx="2.5" ry="2.5" style="stroke:#181818;stroke-width:0.5;" width="121.4893" x="24" y="115"/><ellipse cx="39" cy="131" fill="#ADD1B2" rx="11" ry="11" style="stroke:#181818;stroke-width:1;"/><path d="M41.7656,126.875 Q41.9219,126.6563 42.1094,126.5469 Q42.2969,126.4375 42.5156,126.4375 Q42.8906,126.4375 43.125,126.7031 Q43.3594,126.9531 43.3594,127.5625 L43.3594,129.0156 Q43.3594,129.625 43.125,129.8906 Q42.8906,130.1563 42.5156,130.1563 Q42.1719,130.1563 41.9688,129.9531 Q41.7656,129.7656 41.6563,129.25 Q41.6094,128.8906 41.4219,128.7031 Q41.0938,128.3281 40.4844,128.1094 Q39.875,127.8906 39.25,127.8906 Q38.4844,127.8906 37.8438,128.2188 Q37.2188,128.5469 36.7188,129.2969 Q36.2344,130.0469 36.2344,131.0781 L36.2344,132.1719 Q36.2344,133.4063 37.125,134.2344 Q38.0156,135.0469 39.6094,135.0469 Q40.5469,135.0469 41.2031,134.7969 Q41.5938,134.6406 42.0156,134.2031 Q42.2813,133.9375 42.4219,133.8594 Q42.5781,133.7813 42.7813,133.7813 Q43.1094,133.7813 43.3594,134.0469 Q43.625,134.2969 43.625,134.6406 Q43.625,134.9844 43.2813,135.3906 Q42.7813,135.9688 41.9844,136.2969 Q40.9063,136.75 39.6094,136.75 Q38.0938,136.75 36.8906,136.125 Q35.9063,135.625 35.2188,134.5625 Q34.5313,133.4844 34.5313,132.2031 L34.5313,131.0469 Q34.5313,129.7188 35.1406,128.5781 Q35.7656,127.4219 36.8594,126.8125 Q37.9531,126.1875 39.1875,126.1875 Q39.9219,126.1875 40.5625,126.3594 Q41.2188,126.5156 41.7656,126.875 Z " fill="#000000"/><text fill="#000000" font-family="sans-serif" font-size="14" lengthAdjust="spacing" textLength="89.4893" x="53" y="136.7285">Motor_Vehicle</text><line style="stroke:#181818;stroke-width:0.5;" x1="25" x2="144.4893" y1="147" y2="147"/><line style="stroke:#181818;stroke-width:0.5;" x1="25" x2="144.4893" y1="155" y2="155"/></g><!--class Car--><g class="entity" data-qualified-name="Car" data-source-line="1" id="ent0003"><rect fill="#F1F1F1" height="48" rx="2.5" ry="2.5" style="stroke:#181818;stroke-width:0.5;" width="54.5586" x="7" y="223"/><ellipse cx="22" cy="239" fill="#ADD1B2" rx="11" ry="11" style="stroke:#181818;stroke-width:1;"/><path d="M24.7656,234.875 Q24.9219,234.6563 25.1094,234.5469 Q25.2969,234.4375 25.5156,234.4375 Q25.8906,234.4375 26.125,234.7031 Q26.3594,234.9531 26.3594,235.5625 L26.3594,237.0156 Q26.3594,237.625 26.125,237.8906 Q25.8906,238.1563 25.5156,238.1563 Q25.1719,238.1563 24.9688,237.9531 Q24.7656,237.7656 24.6563,237.25 Q24.6094,236.8906 24.4219,236.7031 Q24.0938,236.3281 23.4844,236.1094 Q22.875,235.8906 22.25,235.8906 Q21.4844,235.8906 20.8438,236.2188 Q20.2188,236.5469 19.7188,237.2969 Q19.2344,238.0469 19.2344,239.0781 L19.2344,240.1719 Q19.2344,241.4063 20.125,242.2344 Q21.0156,243.0469 22.6094,243.0469 Q23.5469,243.0469 24.2031,242.7969 Q24.5938,242.6406 25.0156,242.2031 Q25.2813,241.9375 25.4219,241.8594 Q25.5781,241.7813 25.7813,241.7813 Q26.1094,241.7813 26.3594,242.0469 Q26.625,242.2969 26.625,242.6406 Q26.625,242.9844 26.2813,243.3906 Q25.7813,243.9688 24.9844,244.2969 Q23.9063,244.75 22.6094,244.75 Q21.0938,244.75 19.8906,244.125 Q18.9063,243.625 18.2188,242.5625 Q17.5313,241.4844 17.5313,240.2031 L17.5313,239.0469 Q17.5313,237.7188 18.1406,236.5781 Q18.7656,235.4219 19.8594,234.8125 Q20.9531,234.1875 22.1875,234.1875 Q22.9219,234.1875 23.5625,234.3594 Q24.2188,234.5156 24.7656,234.875 Z " fill="#000000"/><text fill="#000000" font-family="sans-serif" font-size="14" lengthAdjust="spacing" textLength="22.5586" x="36" y="244.7285">Car</text><line style="stroke:#181818;stroke-width:0.5;" x1="8" x2="60.5586" y1="255" y2="255"/><line style="stroke:#181818;stroke-width:0.5;" x1="8" x2="60.5586" y1="263" y2="263"/></g><!--class Vehicle--><g class="entity" data-qualified-name="Vehicle" data-source-line="2" id="ent0005"><rect fill="#F1F1F1" height="48" rx="2.5" ry="2.5" style="stroke:#181818;stroke-width:0.5;" width="77.917" x="108.5" y="7"/><ellipse cx="123.5" cy="23" fill="#ADD1B2" rx="11" ry="11" style="stroke:#181818;stroke-width:1;"/><path d="M126.2656,18.875 Q126.4219,18.6563 126.6094,18.5469 Q126.7969,18.4375 127.0156,18.4375 Q127.3906,18.4375 127.625,18.7031 Q127.8594,18.9531 127.8594,19.5625 L127.8594,21.0156 Q127.8594,21.625 127.625,21.8906 Q127.3906,22.1563 127.0156,22.1563 Q126.6719,22.1563 126.4688,21.9531 Q126.2656,21.7656 126.1563,21.25 Q126.1094,20.8906 125.9219,20.7031 Q125.5938,20.3281 124.9844,20.1094 Q124.375,19.8906 123.75,19.8906 Q122.9844,19.8906 122.3438,20.2188 Q121.7188,20.5469 121.2188,21.2969 Q120.7344,22.0469 120.7344,23.0781 L120.7344,24.1719 Q120.7344,25.4063 121.625,26.2344 Q122.5156,27.0469 124.1094,27.0469 Q125.0469,27.0469 125.7031,26.7969 Q126.0938,26.6406 126.5156,26.2031 Q126.7813,25.9375 126.9219,25.8594 Q127.0781,25.7813 127.2813,25.7813 Q127.6094,25.7813 127.8594,26.0469 Q128.125,26.2969 128.125,26.6406 Q128.125,26.9844 127.7813,27.3906 Q127.2813,27.9688 126.4844,28.2969 Q125.4063,28.75 124.1094,28.75 Q122.5938,28.75 121.3906,28.125 Q120.4063,27.625 119.7188,26.5625 Q119.0313,25.4844 119.0313,24.2031 L119.0313,23.0469 Q119.0313,21.7188 119.6406,20.5781 Q120.2656,19.4219 121.3594,18.8125 Q122.4531,18.1875 123.6875,18.1875 Q124.4219,18.1875 125.0625,18.3594 Q125.7188,18.5156 126.2656,18.875 Z " fill="#000000"/><text fill="#000000" font-family="sans-serif" font-size="14" lengthAdjust="spacing" textLength="45.917" x="137.5" y="28.7285">Vehicle</text><line style="stroke:#181818;stroke-width:0.5;" x1="109.5" x2="185.417" y1="39" y2="39"/><line style="stroke:#181818;stroke-width:0.5;" x1="109.5" x2="185.417" y1="47" y2="47"/></g><!--class Engine--><g class="entity" data-qualified-name="Engine" data-source-line="3" id="ent0007"><rect fill="#F1F1F1" height="48" rx="2.5" ry="2.5" style="stroke:#181818;stroke-width:0.5;" width="75.5928" x="97.5" y="223"/><ellipse cx="112.5" cy="239" fill="#ADD1B2" rx="11" ry="11" style="stroke:#181818;stroke-width:1;"/><path d="M115.2656,234.875 Q115.4219,234.6563 115.6094,234.5469 Q115.7969,234.4375 116.0156,234.4375 Q116.3906,234.4375 116.625,234.7031 Q116.8594,234.9531 116.8594,235.5625 L116.8594,237.0156 Q116.8594,237.625 116.625,237.8906 Q116.3906,238.1563 116.0156,238.1563 Q115.6719,238.1563 115.4688,237.9531 Q115.2656,237.7656 115.1563,237.25 Q115.1094,236.8906 114.9219,236.7031 Q114.5938,236.3281 113.9844,236.1094 Q113.375,235.8906 112.75,235.8906 Q111.9844,235.8906 111.3438,236.2188 Q110.7188,236.5469 110.2188,237.2969 Q109.7344,238.0469 109.7344,239.0781 L109.7344,240.1719 Q109.7344,241.4063 110.625,242.2344 Q111.5156,243.0469 113.1094,243.0469 Q114.0469,243.0469 114.7031,242.7969 Q115.0938,242.6406 115.5156,242.2031 Q115.7813,241.9375 115.9219,241.8594 Q116.0781,241.7813 116.2813,241.7813 Q116.6094,241.7813 116.8594,242.0469 Q117.125,242.2969 117.125,242.6406 Q117.125,242.9844 116.7813,243.3906 Q116.2813,243.9688 115.4844,244.2969 Q114.4063,244.75 113.1094,244.75 Q111.5938,244.75 110.3906,244.125 Q109.4063,243.625 108.7188,242.5625 Q108.0313,241.4844 108.0313,240.2031 L108.0313,239.0469 Q108.0313,237.7188 108.6406,236.5781 Q109.2656,235.4219 110.3594,234.8125 Q111.4531,234.1875 112.6875,234.1875 Q113.4219,234.1875 114.0625,234.3594 Q114.7188,234.5156 115.2656,234.875 Z " fill="#000000"/><text fill="#000000" font-family="sans-serif" font-size="14" lengthAdjust="spacing" textLength="43.5928" x="126.5" y="244.7285">Engine</text><line style="stroke:#181818;stroke-width:0.5;" x1="98.5" x2="172.0928" y1="255" y2="255"/><line style="stroke:#181818;stroke-width:0.5;" x1="98.5" x2="172.0928" y1="263" y2="263"/></g><!--class Boat--><g class="entity" data-qualified-name="Boat" data-source-line="4" id="ent0009"><rect fill="#F1F1F1" height="48" rx="2.5" ry="2.5" style="stroke:#181818;stroke-width:0.5;" width="60.7998" x="180" y="115"/><ellipse cx="195" cy="131" fill="#ADD1B2" rx="11" ry="11" style="stroke:#181818;stroke-width:1;"/><path d="M197.7656,126.875 Q197.9219,126.6563 198.1094,126.5469 Q198.2969,126.4375 198.5156,126.4375 Q198.8906,126.4375 199.125,126.7031 Q199.3594,126.9531 199.3594,127.5625 L199.3594,129.0156 Q199.3594,129.625 199.125,129.8906 Q198.8906,130.1563 198.5156,130.1563 Q198.1719,130.1563 197.9688,129.9531 Q197.7656,129.7656 197.6563,129.25 Q197.6094,128.8906 197.4219,128.7031 Q197.0938,128.3281 196.4844,128.1094 Q195.875,127.8906 195.25,127.8906 Q194.4844,127.8906 193.8438,128.2188 Q193.2188,128.5469 192.7188,129.2969 Q192.2344,130.0469 192.2344,131.0781 L192.2344,132.1719 Q192.2344,133.4063 193.125,134.2344 Q194.0156,135.0469 195.6094,135.0469 Q196.5469,135.0469 197.2031,134.7969 Q197.5938,134.6406 198.0156,134.2031 Q198.2813,133.9375 198.4219,133.8594 Q198.5781,133.7813 198.7813,133.7813 Q199.1094,133.7813 199.3594,134.0469 Q199.625,134.2969 199.625,134.6406 Q199.625,134.9844 199.2813,135.3906 Q198.7813,135.9688 197.9844,136.2969 Q196.9063,136.75 195.6094,136.75 Q194.0938,136.75 192.8906,136.125 Q191.9063,135.625 191.2188,134.5625 Q190.5313,133.4844 190.5313,132.2031 L190.5313,131.0469 Q190.5313,129.7188 191.1406,128.5781 Q191.7656,127.4219 192.8594,126.8125 Q193.9531,126.1875 195.1875,126.1875 Q195.9219,126.1875 196.5625,126.3594 Q197.2188,126.5156 197.7656,126.875 Z " fill="#000000"/><text fill="#000000" font-family="sans-serif" font-size="14" lengthAdjust="spacing" textLength="28.7998" x="209" y="136.7285">Boat</text><line style="stroke:#181818;stroke-width:0.5;" x1="181" x2="239.7998" y1="147" y2="147"/><line style="stroke:#181818;stroke-width:0.5;" x1="181" x2="239.7998" y1="155" y2="155"/></g><!--reverse link Motor_Vehicle to Car--><g class="link" data-entity-1="ent0002" data-entity-2="ent0003" data-link-type="extension" data-source-line="1" id="lnk4"><path codeLine="1" d="M65.971,179.2798 C57.641,196.9398 53.87,204.94 45.5,222.68" fill="none" id="Motor_Vehicle-backto-Car" style="stroke:#181818;stroke-width:1;"/><polygon fill="none" points="73.65,163,60.5444,176.7202,71.3976,181.8395,73.65,163" style="stroke:#181818;stroke-width:1;"/></g><!--reverse link Vehicle to Motor_Vehicle--><g class="link" data-entity-1="ent0005" data-entity-2="ent0002" data-link-type="extension" data-source-line="2" id="lnk6"><path codeLine="2" d="M124.6375,70.4757 C114.1475,88.1357 108.9,96.94 98.36,114.68" fill="none" id="Vehicle-backto-Motor_Vehicle" style="stroke:#181818;stroke-width:1;"/><polygon fill="none" points="133.83,55,119.4789,67.4115,129.796,73.5399,133.83,55" style="stroke:#181818;stroke-width:1;"/></g><!--reverse link Motor_Vehicle to Engine--><g class="link" data-entity-1="ent0002" data-entity-2="ent0007" data-link-type="aggregation" data-source-line="3" id="lnk8"><path codeLine="3" d="M100.7693,173.8151 C109.2593,191.4751 115.75,204.94 124.28,222.68" fill="none" id="Motor_Vehicle-backto-Engine" style="stroke:#181818;stroke-width:1;"/><polygon fill="none" points="95.57,163,94.5646,170.1407,100.7693,173.8151,101.7747,166.6744,95.57,163" style="stroke:#181818;stroke-width:1;"/></g><!--reverse link Vehicle to Boat--><g class="link" data-entity-1="ent0005" data-entity-2="ent0009" data-link-type="extension" data-source-line="4" id="lnk10"><path codeLine="4" d="M170.3625,70.4757 C180.8525,88.1357 186.1,96.94 196.64,114.68" fill="none" id="Vehicle-backto-Boat" style="stroke:#181818;stroke-width:1;"/><polygon fill="none" points="161.17,55,165.204,73.5399,175.5211,67.4115,161.17,55" style="stroke:#181818;stroke-width:1;"/></g><?plantuml-src yyqloI-A3qlDo4pEILMmgT7LLN1EBE924V15LiE5mbF81ygxvgLdvgMYwd7AJom10000?></g></svg>